<svg xmlns="http://www.w3.org/2000/svg" id="eco-friendly" version="1.1" viewBox="0 0 64 64">
  <path d="M50,38.03617c.54999,0,1-.45001,1-1v-5c0-1.65002-1.34998-3-3-3h-14.96997c.16998-3.04004,1.09998-5.95001,2.64996-8.5,1.26001,1,2.78998,1.5,4.32001,1.5,1.78998,0,3.58002-.69,4.95001-2.04999,2.53998-2.54004,3.07001-11.01001,3.12-11.97003.01001-.27997-.09003-.56-.28998-.76001-.20001-.20001-.48004-.31-.76001-.28998-.96002.04999-9.42999.58002-11.97003,3.12-2.42999,2.42999-2.69,6.22998-.77997,8.95001-.96002,1.47998-1.72003,3.07001-2.27002,4.75-.54999-1.67999-1.31-3.27002-2.27002-4.75,1.91003-2.72003,1.65002-6.52002-.77997-8.95001-2.54004-2.53998-11.01001-3.07001-11.97003-3.12-.27997-.02002-.56.08997-.76001.28998-.19995.20001-.29999.48004-.28998.76001.04999.96002.58002,9.42999,3.12,11.97003,1.37,1.35999,3.16003,2.04999,4.95001,2.04999,1.53003,0,3.06-.5,4.32001-1.5,1.54999,2.54999,2.47998,5.45996,2.64996,8.5h-14.96997c-1.65002,0-3,1.34998-3,3v22c0,1.64996,1.34998,3,3,3h32c1.65002,0,3-1.35004,3-3v-13c0-.54999-.45001-1-1-1s-1,.45001-1,1v13c0,.54999-.45001,1-1,1H16c-.54999,0-1-.45001-1-1v-22c0-.54999.45001-1,1-1h6v9c0,.29999.14001.58997.37.77997.23999.19.54999.26001.84998.20001l8.78003-1.96002s8.78003,1.96002,8.78075,1.96013c.62116.0888,1.21925-.31268,1.21925-.98008v-3c0-.54999-.45001-1-1-1s-1,.45001-1,1v1.75l-7.78003-1.73004c-.14996-.02997-.28998-.02997-.43994,0l-7.78003,1.73004v-7.75h16v2c0,.54999.45001,1,1,1s1-.45001,1-1v-2h6c.54999,0,1,.45001,1,1v5c0,.54999.45001,1,1,1ZM36.46002,11.49613c1.34998-1.33997,6.15997-2.15997,9.52997-2.44995-.28998,3.37-1.10999,8.17999-2.45001,9.52997-.94995.94-2.19995,1.46002-3.53998,1.46002-1.17999,0-2.28003-.42004-3.16998-1.17004,1.09998-1.41998,2.41998-2.68994,3.94-3.75l1.79999-1.25995c.46002-.32001.57001-.94.25-1.39001-.32001-.46002-.94-.56-1.39001-.25l-1.81,1.27002c-1.54999,1.07996-2.90002,2.35999-4.07001,3.78998-.34998-.69-.54999-1.45001-.54999-2.23999,0-1.34003.52002-2.59003,1.46002-3.54004ZM28.45001,17.27616c-1.16998-1.42999-2.52002-2.71002-4.07001-3.78998l-1.81-1.27002c-.45001-.31-1.07001-.21002-1.39001.25-.32001.45001-.21002,1.07001.25,1.39001l1.79999,1.25995c1.52002,1.06006,2.84003,2.33002,3.94,3.75-.88995.75-1.98999,1.17004-3.16998,1.17004-1.34003,0-2.59003-.52002-3.53998-1.46002-1.34003-1.34998-2.16003-6.15997-2.45001-9.52997,3.37.28998,8.17999,1.10999,9.52997,2.44995.94.95001,1.46002,2.20001,1.46002,3.54004,0,.78998-.20001,1.54999-.54999,2.23999Z"></path>
  <path d="M26 45.03617c.55225 0 1-.44775 1-1s-.44775-1-1-1h-4c-.55225 0-1 .44775-1 1v8c0 .55225.44775 1 1 1h4c.55225 0 1-.44775 1-1s-.44775-1-1-1h-3v-2h3c.55225 0 1-.44775 1-1s-.44775-1-1-1h-3v-2h3ZM32 45.03617h2c.55225 0 1-.44775 1-1s-.44775-1-1-1h-2c-1.6543 0-3 1.3457-3 3v4c0 1.6543 1.3457 3 3 3h2c.55225 0 1-.44775 1-1s-.44775-1-1-1h-2c-.55127 0-1-.44873-1-1v-4c0-.55127.44873-1 1-1ZM37 46.03617v4c0 1.6543 1.3457 3 3 3s3-1.3457 3-3v-4c0-1.6543-1.3457-3-3-3s-3 1.3457-3 3ZM41 46.03617v4c0 .55127-.44873 1-1 1s-1-.44873-1-1v-4c0-.55127.44873-1 1-1s1 .44873 1 1Z"></path>
</svg>
