<svg xmlns="http://www.w3.org/2000/svg" viewBox="0 0 64 64" id="appraisal">
  <path d="M32 14.21a.49.49 0 0 1-.4-.21l-4-5.7a.49.49 0 0 1 0-.52.47.47 0 0 1 .4-.26h1.75V.49a.49.49 0 0 1 .46-.49h3.58a.49.49 0 0 1 .49.49v7.06h1.75a.47.47 0 0 1 .44.26.49.49 0 0 1 0 .52l-4 5.7a.49.49 0 0 1-.47.18zm-3.08-5.69L32 12.87l3.08-4.35H33.8a.64.64 0 0 1-.36-.14.5.5 0 0 1-.14-.35V1h-2.6v7.05a.5.5 0 0 1-.14.35.8.8 0 0 1-.36.14zm-9.85 11.05H19l-6.9-1.19a.5.5 0 0 1-.39-.34.51.51 0 0 1 .13-.5l1.26-1.22-5-5a.49.49 0 0 1 0-.69l2.53-2.53a.49.49 0 0 1 .69 0l5 5 1.22-1.26a.49.49 0 0 1 .5-.13.5.5 0 0 1 .34.39l1.18 6.9a.49.49 0 0 1-.14.43.51.51 0 0 1-.35.14zm-5.85-2 5.25.9-.9-5.25-.89.92a.45.45 0 0 1-.35.15.51.51 0 0 1-.35-.14l-5-5L9.15 11l5 5a.5.5 0 0 1 .14.35.45.45 0 0 1-.15.35zM8 36.53a.46.46 0 0 1-.23-.06.49.49 0 0 1-.25-.47v-1.75H.49a.49.49 0 0 1-.49-.46v-3.58a.49.49 0 0 1 .49-.49h7.06v-1.75a.49.49 0 0 1 .78-.41l5.7 4a.49.49 0 0 1 0 .8l-5.7 4a.52.52 0 0 1-.33.17zM1 33.3h7.05a.5.5 0 0 1 .35.14.48.48 0 0 1 .14.36v1.28L12.87 32l-4.35-3.08v1.28a.48.48 0 0 1-.14.36.5.5 0 0 1-.35.14H1zM11 56a.49.49 0 0 1-.34-.15l-2.55-2.49a.49.49 0 0 1 0-.69l5-5-1.26-1.22a.51.51 0 0 1-.13-.5.5.5 0 0 1 .39-.34L19 44.44a.53.53 0 0 1 .43.14.49.49 0 0 1 .14.43l-1.19 6.89a.5.5 0 0 1-.34.39.49.49 0 0 1-.5-.13l-1.22-1.26-5 5a.49.49 0 0 1-.32.1zm-1.85-3L11 54.85l5-5a.41.41 0 0 1 .35-.14.45.45 0 0 1 .35.15l.89.92.9-5.25-5.25.9.92.89a.45.45 0 0 1 .15.35.46.46 0 0 1-.14.35zm24.64 11h-3.58a.49.49 0 0 1-.49-.49v-7.06h-1.75a.45.45 0 0 1-.44-.26.49.49 0 0 1 0-.52l4-5.7a.51.51 0 0 1 .8 0l4 5.7a.49.49 0 0 1 0 .52.45.45 0 0 1-.44.26h-1.75v7.06a.49.49 0 0 1-.35.49zm-3.09-1h2.6v-7a.5.5 0 0 1 .14-.35.47.47 0 0 1 .36-.14h1.28L32 51.13l-3.08 4.35h1.28a.56.56 0 0 1 .36.14.5.5 0 0 1 .14.35zM53 56a.49.49 0 0 1-.35-.15l-5-5-1.22 1.26a.49.49 0 0 1-.5.13.5.5 0 0 1-.34-.39L44.44 45a.49.49 0 0 1 .14-.43.53.53 0 0 1 .43-.14l6.89 1.18a.5.5 0 0 1 .39.34.51.51 0 0 1-.13.5l-1.26 1.23 5 5a.49.49 0 0 1 0 .69l-2.53 2.53a.49.49 0 0 1-.37.1zm-5.35-6.33a.5.5 0 0 1 .35.14l5 5L54.85 53l-5-5a.5.5 0 0 1-.14-.35.45.45 0 0 1 .15-.35l.92-.89-5.25-.9.9 5.25.89-.92a.45.45 0 0 1 .35-.15zM56 36.53a.52.52 0 0 1-.29-.09l-5.7-4a.49.49 0 0 1 0-.8l5.7-4a.49.49 0 0 1 .78.41v1.75h7.06a.49.49 0 0 1 .49.49v3.58a.49.49 0 0 1-.49.49h-7.1v1.75a.49.49 0 0 1-.26.44.46.46 0 0 1-.19-.02zM51.13 32l4.35 3.08V33.8a.48.48 0 0 1 .14-.36.5.5 0 0 1 .38-.14h7v-2.6h-7a.5.5 0 0 1-.35-.14.52.52 0 0 1-.14-.36v-1.28zm-6.2-12.43a.51.51 0 0 1-.35-.15.49.49 0 0 1-.14-.43l1.18-6.89a.5.5 0 0 1 .34-.39.51.51 0 0 1 .5.13l1.22 1.26 5-5a.49.49 0 0 1 .69 0l2.53 2.53a.49.49 0 0 1 0 .69l-5 5 1.26 1.22a.51.51 0 0 1 .13.5.5.5 0 0 1-.39.34L45 19.56zm1.5-6.35-.9 5.25 5.25-.9-.92-.89a.45.45 0 0 1-.15-.35.5.5 0 0 1 .14-.35l5-5L53 9.15l-5 5a.5.5 0 0 1-.35.14.39.39 0 0 1-.35-.15zm-21.28 28.7a.5.5 0 0 1-.48-.58L25.93 34l-5.36-5.22a.49.49 0 0 1-.12-.5.5.5 0 0 1 .4-.34l7.4-1.07 3.31-6.71a.51.51 0 0 1 .88 0l3.31 6.71 7.4 1.07a.5.5 0 0 1 .4.34.49.49 0 0 1-.12.5L38.07 34l1.27 7.37a.49.49 0 0 1-.2.48.47.47 0 0 1-.52 0L32 38.38l-6.62 3.48a.46.46 0 0 1-.23.06zM22 28.74l4.83 4.71a.46.46 0 0 1 .14.43l-1.17 6.65 6-3.14a.53.53 0 0 1 .46 0l6 3.14-1.14-6.65a.46.46 0 0 1 .14-.43L42 28.74l-6.67-1a.47.47 0 0 1-.33-.24l-3-6-3 6a.47.47 0 0 1-.37.27z"></path>
</svg>
