<svg xmlns="http://www.w3.org/2000/svg" viewBox="0 0 64 64" id="protection-shield">
  <path d="M32 64c-.12 0-.24-.02-.35-.07l-1.57-.61C6.95 54.25 3.11 28.35 4.32 15.92l.36-3.77a.98.98 0 0 1 .94-.88l3.79-.1c12.01-.33 18.44-7.08 18.7-7.36l3.17-3.5c.37-.41 1.07-.41 1.44 0l3.18 3.51c.06.07 6.59 7.02 18.69 7.35l3.79.1c.49.01.89.39.94.88l.36 3.77c1.2 12.43-2.64 38.33-25.76 47.4l-1.57.61c-.11.05-.23.07-.35.07zM6.53 13.19l-.28 2.92c-1.16 11.92 2.49 36.75 24.54 45.4l1.21.48 1.21-.48c22.05-8.65 25.7-33.48 24.54-45.41l-.28-2.92-2.93-.08c-13.08-.36-20.01-7.92-20.08-7.99L32 2.4l-2.46 2.72c-.3.32-7.26 7.64-20.08 7.99l-2.93.08z"></path>
  <path d="M32 59.39c-.12 0-.24-.02-.35-.07C5.72 49.16 8.55 16.66 8.59 16.33a.98.98 0 0 1 .94-.88c13.97-.38 21.68-8.68 21.76-8.76.37-.4 1.07-.41 1.44 0 .08.08 7.79 8.38 21.76 8.76.49.01.89.39.94.88.03.33 2.86 32.82-23.06 42.99-.13.05-.25.07-.37.07zM10.46 17.36c-.24 5.03-.37 31.15 21.54 40.02 21.91-8.87 21.78-34.98 21.54-40.02-11.98-.6-19.3-6.54-21.54-8.64-2.23 2.1-9.56 8.04-21.54 8.64z"></path>
  <path d="M32 59.39c-.54 0-.97-.43-.97-.97V7.35c0-.54.43-.97.97-.97s.97.43.97.97v51.07c0 .54-.43.97-.97.97z"></path>
  <path d="M53.21 32.96H10.79c-.54 0-.97-.43-.97-.97s.43-.97.97-.97h42.42c.54 0 .97.43.97.97s-.43.97-.97.97z"></path>
</svg>
