<svg xmlns="http://www.w3.org/2000/svg" viewBox="0 0 64 64" id="contact-card" class="theme_2">
  <style>
    <![CDATA[
      .contact-card__path-1 {
        fill: red;
      }

      :where(.theme_2) .contact-card__path-1 {
        fill: green;
      }
    ]]>
  </style>
  <path class="contact-card__path-1" d="M52.48,44.55H1.62A1.63,1.63,0,0,1,0,42.93V11.16A1.63,1.63,0,0,1,1.62,9.54H52.48a1.63,1.63,0,0,1,1.62,1.62V42.93A1.63,1.63,0,0,1,52.48,44.55Zm-50.86-34a.64.64,0,0,0-.64.63V42.93a.64.64,0,0,0,.64.63H52.48a.64.64,0,0,0,.64-.63V11.16a.64.64,0,0,0-.64-.63Z"></path>
  <path class="contact-card__path-2" d="M57.43,49.5H6.57A1.63,1.63,0,0,1,5,47.88V44.05a.49.49,0,0,1,1,0v3.83a.64.64,0,0,0,.64.64H57.43a.64.64,0,0,0,.64-.64V16.11a.64.64,0,0,0-.64-.63H53.61a.49.49,0,0,1,0-1h3.82a1.62,1.62,0,0,1,1.63,1.61V47.88A1.63,1.63,0,0,1,57.43,49.5Z"></path>
  <path class="contact-card__path-3" d="M62.39 54.46H11.53A1.63 1.63 0 0 1 9.9 52.83V49a.5.5 0 0 1 1 0v3.82a.64.64 0 0 0 .64.64H62.39a.64.64 0 0 0 .63-.64V21.07a.64.64 0 0 0-.63-.64H58.56a.5.5 0 0 1 0-1h3.83A1.62 1.62 0 0 1 64 21.07V52.83A1.62 1.62 0 0 1 62.39 54.46zM14.87 26.06a4.63 4.63 0 1 1 4.63-4.63A4.63 4.63 0 0 1 14.87 26.06zm0-8.27a3.64 3.64 0 1 0 3.64 3.64A3.65 3.65 0 0 0 14.87 17.79zM23.36 38h-17a.49.49 0 0 1-.5-.49 9 9 0 0 1 18 0A.49.49 0 0 1 23.36 38zM6.89 37h16a8 8 0 0 0-16 0zM47.77 22.94H28.31a.49.49 0 0 1-.5-.49V16.69a.49.49 0 0 1 .5-.49H47.77a.49.49 0 0 1 .49.49v5.76A.49.49 0 0 1 47.77 22.94zm-19-1H47.27V17.18H28.8z"></path>
  <path class="contact-card__path-4" d="M47.77 27.94H28.31a.49.49 0 1 1 0-1H47.77a.49.49 0 1 1 0 1zM47.77 33H28.31a.5.5 0 1 1 0-1H47.77a.5.5 0 0 1 0 1zM47.77 38H28.31a.49.49 0 1 1 0-1H47.77a.49.49 0 0 1 0 1z"></path>
</svg>