<svg xmlns="http://www.w3.org/2000/svg" fill-rule="evenodd" stroke-linejoin="round" stroke-miterlimit="2" clip-rule="evenodd" viewBox="0 0 48 48" id="briefing">
  <g>
    <path d="M16 41.048c0-1.339-.532-2.623-1.478-3.57-.947-.946-2.231-1.478-3.57-1.478-.628 0-1.276 0-1.904 0-1.339 0-2.623.532-3.57 1.478-.946.947-1.478 2.231-1.478 3.57 0 .346 0 .67 0 .952 0 1.105.895 2 2 2l8 0c1.105 0 2-.895 2-2 0-.282 0-.606 0-.952zm-2 .952c0 0-8 0-8 0l0-.952c0-.809.321-1.584.893-2.155.571-.572 1.346-.893 2.155-.893l1.904 0c.809 0 1.584.321 2.155.893.572.571.893 1.346.893 2.155l0 .952zM30 42l0-1.021c0-2.75-2.229-4.979-4.979-4.979l-2.042 0c-2.75 0-4.979 2.229-4.979 4.979 0 .372 0 .721 0 1.021 0 1.105.895 2 2 2l8 0c1.105 0 2-.895 2-2zm-2 0c0 0-8 0-8 0l0-1.021c0-1.645 1.334-2.979 2.979-2.979 0 0 2.042 0 2.042 0 1.645 0 2.979 1.334 2.979 2.979l0 1.021zM30 24l0-1.021c0-2.75-2.229-4.979-4.979-4.979l-2.042 0c-2.75 0-4.979 2.229-4.979 4.979 0 .372 0 .721 0 1.021 0 1.105.895 2 2 2l8 0c1.105 0 2-.895 2-2zm-2 0l-8 0 0-1.021c0-1.645 1.334-2.979 2.979-2.979 0 0 2.042 0 2.042 0 1.645 0 2.979 1.334 2.979 2.979l0 1.021zM44 40.982c0-1.321-.525-2.588-1.459-3.523-.935-.934-2.202-1.459-3.523-1.459-.67 0-1.366 0-2.036 0-1.321 0-2.588.525-3.523 1.459-.934.935-1.459 2.202-1.459 3.523 0 .371 0 .719 0 1.018 0 1.105.895 2 2 2l8 0c1.105 0 2-.895 2-2 0-.299 0-.647 0-1.018zm-2 1.018c0 0-8 0-8 0l0-1.018c0-.791.314-1.549.873-2.109.56-.559 1.318-.873 2.109-.873l2.036 0c.791 0 1.549.314 2.109.873.559.56.873 1.318.873 2.109l0 1.018zM10 28c-2.208 0-4 1.792-4 4 0 2.208 1.792 4 4 4 2.208 0 4-1.792 4-4 0-2.208-1.792-4-4-4zm0 2c1.104 0 2 .896 2 2 0 1.104-.896 2-2 2-1.104 0-2-.896-2-2 0-1.104.896-2 2-2zM24 28c-2.208 0-4 1.792-4 4 0 2.208 1.792 4 4 4 2.208 0 4-1.792 4-4 0-2.208-1.792-4-4-4zm0 2c1.104 0 2 .896 2 2 0 1.104-.896 2-2 2-1.104 0-2-.896-2-2 0-1.104.896-2 2-2zM24 10c-2.208 0-4 1.792-4 4 0 2.208 1.792 4 4 4 2.208 0 4-1.792 4-4 0-2.208-1.792-4-4-4zm0 2c1.104 0 2 .896 2 2 0 1.104-.896 2-2 2-1.104 0-2-.896-2-2 0-1.104.896-2 2-2z"></path>
    <path d="M38 28c-2.208 0-4 1.792-4 4 0 2.208 1.792 4 4 4 2.208 0 4-1.792 4-4 0-2.208-1.792-4-4-4zm0 2c1.104 0 2 .896 2 2 0 1.104-.896 2-2 2-1.104 0-2-.896-2-2 0-1.104.896-2 2-2zM9 6l30 0 0 11-6.973 0c-.552 0-1 .448-1 1 0 .552.448 1 1 1l6.973 0 0 1c0 .265-.105.52-.293.707-.187.188-.442.293-.707.293l-4.985 0c-.552 0-1 .448-1 1 0 .552.448 1 1 1l4.985 0c.796 0 1.559-.316 2.121-.879.563-.562.879-1.325.879-2.121l0-14 2 0c.552 0 1-.448 1-1 0-.552-.448-1-1-1l-38 0c-.552 0-1 .448-1 1 0 .552.448 1 1 1l2 0 0 14c0 .796.316 1.559.879 2.121.562.563 1.325.879 2.121.879 1.234 0 2.965 0 4.978 0 .552 0 1-.448 1-1 0-.552-.448-1-1-1-2.013 0-3.744 0-4.978 0-.265 0-.52-.105-.707-.293-.188-.187-.293-.442-.293-.707l0-1 7.981 0c.552 0 1-.448 1-1 0-.552-.448-1-1-1l-7.981 0 0-11z"></path>
  </g>
</svg>
