<svg xmlns="http://www.w3.org/2000/svg" fill-rule="evenodd" stroke-linejoin="round" stroke-miterlimit="2" clip-rule="evenodd" viewBox="0 0 48 48" id="online-interview">
  <g>
    <path d="M19.382,41l-2,4l-2.382,0c-0.552,0 -1,0.448 -1,1c0,0.552 0.448,1 1,1l18,0c0.552,0 1,-0.448 1,-1c0,-0.552 -0.448,-1 -1,-1l-2.382,0l-2,-4l15.382,-0c1.657,-0 3,-1.343 3,-3c0,-5.746 0,-22.254 0,-28c0,-1.657 -1.343,-3 -3,-3l-40,0c-1.657,0 -3,1.343 -3,3c0,5.746 0,22.254 0,28c-0,1.657 1.343,3 3,3l15.382,-0Zm0.236,4l8.764,0l-2,-4l-4.764,-0l-2,4Zm25.382,-10l0,3c0,0.552 -0.448,1 -1,1c-0,-0 -40,-0 -40,-0c-0.552,-0 -1,-0.448 -1,-1l0,-3l42,0Zm-30.446,-7.446c1.453,-1.334 3.852,-2.554 6.164,-2.554l0.753,-0c-0.372,-0.229 -0.718,-0.509 -1.027,-0.836c-0.922,-0.978 -1.444,-2.302 -1.444,-3.684l0,-4.24c-0,-1.383 0.522,-2.707 1.444,-3.684c0.943,-0.999 2.223,-1.556 3.556,-1.556c0,0 0,0 0,0c1.333,0 2.613,0.557 3.556,1.556c0.922,0.977 1.444,2.301 1.444,3.684c-0,-0 -0,4.24 -0,4.24c0,1.382 -0.522,2.706 -1.444,3.684c-0.309,0.327 -0.655,0.607 -1.027,0.836l0.753,-0c2.312,-0 4.529,0.919 6.164,2.554c1.465,1.464 2.355,3.397 2.524,5.446l-2.009,0c-0.163,-1.518 -0.839,-2.943 -1.929,-4.032c-0.948,-0.948 -2.151,-1.584 -3.447,-1.84c-0.479,2.233 -2.334,3.872 -4.5,3.872c-2.176,0 -4.038,-1.654 -4.507,-3.903c-1.359,0.235 -2.622,0.883 -3.61,1.871c-1.09,1.089 -1.766,2.514 -1.929,4.032c-0,0 -1.928,0.005 -2.039,0c0.066,-1.295 1.1,-4.113 2.554,-5.446Zm14.446,5.446l0,-0.984c0,-0.552 0.448,-1 1,-1c0.552,-0 1,0.448 1,1l-0,0.984l-2,0Zm-12,0l0,-0.984c0,-0.552 0.448,-1 1,-1c0.552,-0 1,0.448 1,1l0,0.984l-2,0Zm9.553,-6c-0.358,1.154 -1.311,2 -2.468,2c-1.158,0 -2.111,-0.846 -2.469,-2l4.937,-0Zm0.447,-9.693c-0.559,-0.15 -1.221,-0.333 -1.675,-0.542c-1.423,0.817 -2.731,1.185 -4.325,1.061l0,2.654c-0,0.866 0.321,1.699 0.899,2.311c0.558,0.591 1.312,0.928 2.101,0.928c0.789,0 1.543,-0.337 2.101,-0.928c0.578,-0.612 0.899,-1.445 0.899,-2.311l-0,-3.173Zm11,-0.307l4,-0c0.552,0 1,-0.448 1,-1c0,-0.552 -0.448,-1 -1,-1l-4,-0c-0.552,0 -1,0.448 -1,1c0,0.552 0.448,1 1,1Zm-30,-6c-1.656,-0 -3,1.344 -3,3c0,1.656 1.344,3 3,3c1.656,-0 3,-1.344 3,-3c0,-1.656 -1.344,-3 -3,-3Zm18.844,4.21c-0.148,-0.479 -0.401,-0.919 -0.743,-1.282c-0.558,-0.591 -1.312,-0.928 -2.101,-0.928c0,0 0,0 0,-0c-0.789,-0 -1.543,0.337 -2.101,0.928c-0.484,0.513 -0.787,1.179 -0.874,1.89c1.393,0.126 2.487,-0.255 3.746,-1.055c0.328,-0.208 0.746,-0.208 1.073,0c0.087,0.055 0.176,0.109 0.266,0.161c0.185,0.107 0.449,0.201 0.734,0.286Zm8.156,-2.21l7,-0c0.552,-0 1,-0.448 1,-1c-0,-0.552 -0.448,-1 -1,-1l-7,-0c-0.552,-0 -1,0.448 -1,1c-0,0.552 0.448,1 1,1Z"></path>
  </g>
</svg>
