<svg xmlns="http://www.w3.org/2000/svg" viewBox="0 0 512 512" id="like">
  <path fill-rule="evenodd" d="M98.254 488.488c0 3.72-2.996 6.753-6.728 6.753H28.028c-3.679 0-6.728-3.033-6.728-6.753V241.435c0-3.733 3.049-6.754 6.728-6.754h63.498c3.732 0 6.728 3.021 6.728 6.754v247.053zM207.273 61.531a8.851 8.851 0 0 1 0-12.615 8.873 8.873 0 0 1 12.563 0l21.446 21.43c3.469 3.476 3.469 9.115 0 12.603a8.838 8.838 0 0 1-6.308 2.608 8.926 8.926 0 0 1-6.308-2.608l-21.393-21.418zm131.568 21.418c-3.469-3.489-3.469-9.127 0-12.603l21.446-21.43a8.873 8.873 0 0 1 12.563 0 8.851 8.851 0 0 1 0 12.615l-21.394 21.418a8.924 8.924 0 0 1-6.308 2.608 8.837 8.837 0 0 1-6.307-2.608zm-57.715-35.736V16.915c0-4.925 3.995-8.915 8.936-8.915s8.936 3.99 8.936 8.915v30.298c0 4.925-3.995 8.914-8.936 8.914s-8.936-3.989-8.936-8.914zm167.996 381.591h-105.76c-4.889 0-8.883 4-8.883 8.914 0 4.926 3.995 8.915 8.883 8.915h66.389c15.822 0 28.7 12.87 28.7 28.683 0 15.812-12.878 28.684-28.7 28.684h-165.21c-43.733 0-72.538-10.776-100.45-21.184-9.041-3.388-18.345-6.854-27.964-9.862v-213.44l4.678-.01c20.5-.191 36.637-8.515 47.833-24.76 2.313-3.332 4.363-6.33 6.256-9.059 16.82-24.517 17.136-24.985 43.47-42.189 46.438-30.356 48.257-23.808 61.648-81.799.943-4.088 3.839-7.114 7.882-8.234 4.043-1.12 8.083-.018 10.996 3.002 5.192 5.382 9.084 12.21 11.749 20.547 12.09 37.976-3.283 72.054-18.211 89.316-2.26 2.631-2.786 6.364-1.367 9.538 1.472 3.177 4.626 5.205 8.095 5.205h142.292c15.822 0 28.7 12.87 28.7 28.683 0 15.812-12.878 28.682-28.7 28.682h-98.085c-4.889 0-8.883 3.989-8.883 8.916 0 4.926 3.995 8.913 8.883 8.913h118.69c15.769 0 28.647 12.86 28.647 28.672 0 15.824-12.878 28.682-28.647 28.682h-118.69c-4.889 0-8.883 3.99-8.883 8.915 0 4.926 3.995 8.916 8.883 8.916h105.76c15.769 0 28.648 12.87 28.648 28.683-.002 15.812-12.88 28.671-28.649 28.671z" clip-rule="evenodd"></path>
</svg>
