<svg xmlns="http://www.w3.org/2000/svg" fill-rule="evenodd" stroke-linejoin="round" stroke-miterlimit="2" clip-rule="evenodd" viewBox="0 0 48 48" id="puzzle">
  <g>
    <path d="M8.359,17.334c1.987,-4.651 5.989,-8.24 10.907,-9.665c0.53,-0.154 0.835,-0.709 0.682,-1.239c-0.154,-0.53 -0.709,-0.836 -1.239,-0.682c-5.496,1.592 -9.969,5.602 -12.19,10.8c-0.217,0.508 0.02,1.096 0.527,1.313c0.508,0.217 1.096,-0.019 1.313,-0.527Z"></path>
    <path d="M24,1c-12.694,0 -23,10.306 -23,23c0,12.694 10.306,23 23,23c12.694,0 23,-10.306 23,-23c0,-12.694 -10.306,-23 -23,-23Zm-1,23.996c-3.601,-0.002 -7.059,-0.006 -7.071,-0.01c-0.519,-0.037 -0.929,-0.47 -0.929,-0.998c0,0 0,-1.988 0,-1.988c0,-1.104 -0.896,-2 -2,-2c-1.104,0 -2,0.896 -2,2l0,2.012c0,0.552 -0.448,1 -1,1l-6.976,-0.011c0.507,10.795 9.181,19.469 19.976,19.976l0,-5.977l-1,-0c-2.208,-0 -4,-1.792 -4,-4c0,-2.208 1.792,-4 4,-4l1,0l-0,-6.004Zm2,0.001l0,6.961c-0,0.025 -0.004,0.05 -0.012,0.072c-0.016,0.538 -0.458,0.97 -1,0.97c0,-0 -1.988,-0 -1.988,-0c-1.104,-0 -2,0.896 -2,2c0,1.104 0.896,2 2,2l1.988,-0c0.55,0 0.997,0.445 1,0.994c0.008,0.022 0.012,0.046 0.012,0.071l0,6.912c10.795,-0.507 19.469,-9.181 19.977,-19.977l-5.977,0l-0,1c-0,2.208 -1.792,4 -4,4c-2.208,-0 -4,-1.792 -4,-4l0,-1c0,0 -2.808,-0.001 -6,-0.003Zm19.977,-1.997c-0.508,-10.796 -9.182,-19.47 -19.977,-19.977l-0,5.977l1,0c2.208,0 4,1.792 4,4c-0,2.208 -1.792,4 -4,4l-1,0l-0,6l6.993,0c0.542,-0 0.983,0.431 1,0.968c0.005,0.018 0.007,2.032 0.007,2.032c-0,1.104 0.896,2 2,2c1.104,-0 2,-0.896 2,-2c-0,-0 -0.008,-1.956 -0.008,-2c-0,-0.552 0.448,-1 1,-1l6.985,0Zm-21.977,0l-0,-7c0,-0.552 0.448,-1 1,-1l2,0c1.104,0 2,-0.896 2,-2c-0,-1.104 -0.896,-2 -2,-2l-2,0c-0.552,0 -1,-0.448 -1,-1l-0,-6.977c-10.795,0.507 -19.469,9.181 -19.977,19.977l5.977,0l0,-1c0,-2.208 1.792,-4 4,-4c2.208,0 4,1.792 4,4l0,1l6,0Z"></path>
  </g>
</svg>
