<svg display="none" width="0" height="0" version="1.1" xmlns="http://www.w3.org/2000/svg" xmlns:xlink="http://www.w3.org/1999/xlink">
<defs>
<symbol id="appraisal" viewBox="0 0 64 64">
  <path d="M32 14.21a.49.49 0 0 1-.4-.21l-4-5.7a.49.49 0 0 1 0-.52.47.47 0 0 1 .4-.26h1.75V.49a.49.49 0 0 1 .46-.49h3.58a.49.49 0 0 1 .49.49v7.06h1.75a.47.47 0 0 1 .44.26.49.49 0 0 1 0 .52l-4 5.7a.49.49 0 0 1-.47.18zm-3.08-5.69L32 12.87l3.08-4.35H33.8a.64.64 0 0 1-.36-.14.5.5 0 0 1-.14-.35V1h-2.6v7.05a.5.5 0 0 1-.14.35.8.8 0 0 1-.36.14zm-9.85 11.05H19l-6.9-1.19a.5.5 0 0 1-.39-.34.51.51 0 0 1 .13-.5l1.26-1.22-5-5a.49.49 0 0 1 0-.69l2.53-2.53a.49.49 0 0 1 .69 0l5 5 1.22-1.26a.49.49 0 0 1 .5-.13.5.5 0 0 1 .34.39l1.18 6.9a.49.49 0 0 1-.14.43.51.51 0 0 1-.35.14zm-5.85-2 5.25.9-.9-5.25-.89.92a.45.45 0 0 1-.35.15.51.51 0 0 1-.35-.14l-5-5L9.15 11l5 5a.5.5 0 0 1 .14.35.45.45 0 0 1-.15.35zM8 36.53a.46.46 0 0 1-.23-.06.49.49 0 0 1-.25-.47v-1.75H.49a.49.49 0 0 1-.49-.46v-3.58a.49.49 0 0 1 .49-.49h7.06v-1.75a.49.49 0 0 1 .78-.41l5.7 4a.49.49 0 0 1 0 .8l-5.7 4a.52.52 0 0 1-.33.17zM1 33.3h7.05a.5.5 0 0 1 .35.14.48.48 0 0 1 .14.36v1.28L12.87 32l-4.35-3.08v1.28a.48.48 0 0 1-.14.36.5.5 0 0 1-.35.14H1zM11 56a.49.49 0 0 1-.34-.15l-2.55-2.49a.49.49 0 0 1 0-.69l5-5-1.26-1.22a.51.51 0 0 1-.13-.5.5.5 0 0 1 .39-.34L19 44.44a.53.53 0 0 1 .43.14.49.49 0 0 1 .14.43l-1.19 6.89a.5.5 0 0 1-.34.39.49.49 0 0 1-.5-.13l-1.22-1.26-5 5a.49.49 0 0 1-.32.1zm-1.85-3L11 54.85l5-5a.41.41 0 0 1 .35-.14.45.45 0 0 1 .35.15l.89.92.9-5.25-5.25.9.92.89a.45.45 0 0 1 .15.35.46.46 0 0 1-.14.35zm24.64 11h-3.58a.49.49 0 0 1-.49-.49v-7.06h-1.75a.45.45 0 0 1-.44-.26.49.49 0 0 1 0-.52l4-5.7a.51.51 0 0 1 .8 0l4 5.7a.49.49 0 0 1 0 .52.45.45 0 0 1-.44.26h-1.75v7.06a.49.49 0 0 1-.35.49zm-3.09-1h2.6v-7a.5.5 0 0 1 .14-.35.47.47 0 0 1 .36-.14h1.28L32 51.13l-3.08 4.35h1.28a.56.56 0 0 1 .36.14.5.5 0 0 1 .14.35zM53 56a.49.49 0 0 1-.35-.15l-5-5-1.22 1.26a.49.49 0 0 1-.5.13.5.5 0 0 1-.34-.39L44.44 45a.49.49 0 0 1 .14-.43.53.53 0 0 1 .43-.14l6.89 1.18a.5.5 0 0 1 .39.34.51.51 0 0 1-.13.5l-1.26 1.23 5 5a.49.49 0 0 1 0 .69l-2.53 2.53a.49.49 0 0 1-.37.1zm-5.35-6.33a.5.5 0 0 1 .35.14l5 5L54.85 53l-5-5a.5.5 0 0 1-.14-.35.45.45 0 0 1 .15-.35l.92-.89-5.25-.9.9 5.25.89-.92a.45.45 0 0 1 .35-.15zM56 36.53a.52.52 0 0 1-.29-.09l-5.7-4a.49.49 0 0 1 0-.8l5.7-4a.49.49 0 0 1 .78.41v1.75h7.06a.49.49 0 0 1 .49.49v3.58a.49.49 0 0 1-.49.49h-7.1v1.75a.49.49 0 0 1-.26.44.46.46 0 0 1-.19-.02zM51.13 32l4.35 3.08V33.8a.48.48 0 0 1 .14-.36.5.5 0 0 1 .38-.14h7v-2.6h-7a.5.5 0 0 1-.35-.14.52.52 0 0 1-.14-.36v-1.28zm-6.2-12.43a.51.51 0 0 1-.35-.15.49.49 0 0 1-.14-.43l1.18-6.89a.5.5 0 0 1 .34-.39.51.51 0 0 1 .5.13l1.22 1.26 5-5a.49.49 0 0 1 .69 0l2.53 2.53a.49.49 0 0 1 0 .69l-5 5 1.26 1.22a.51.51 0 0 1 .13.5.5.5 0 0 1-.39.34L45 19.56zm1.5-6.35-.9 5.25 5.25-.9-.92-.89a.45.45 0 0 1-.15-.35.5.5 0 0 1 .14-.35l5-5L53 9.15l-5 5a.5.5 0 0 1-.35.14.39.39 0 0 1-.35-.15zm-21.28 28.7a.5.5 0 0 1-.48-.58L25.93 34l-5.36-5.22a.49.49 0 0 1-.12-.5.5.5 0 0 1 .4-.34l7.4-1.07 3.31-6.71a.51.51 0 0 1 .88 0l3.31 6.71 7.4 1.07a.5.5 0 0 1 .4.34.49.49 0 0 1-.12.5L38.07 34l1.27 7.37a.49.49 0 0 1-.2.48.47.47 0 0 1-.52 0L32 38.38l-6.62 3.48a.46.46 0 0 1-.23.06zM22 28.74l4.83 4.71a.46.46 0 0 1 .14.43l-1.17 6.65 6-3.14a.53.53 0 0 1 .46 0l6 3.14-1.14-6.65a.46.46 0 0 1 .14-.43L42 28.74l-6.67-1a.47.47 0 0 1-.33-.24l-3-6-3 6a.47.47 0 0 1-.37.27z"></path>
</symbol>
<symbol id="protection-shield" viewBox="0 0 64 64">
  <path d="M32 64c-.12 0-.24-.02-.35-.07l-1.57-.61C6.95 54.25 3.11 28.35 4.32 15.92l.36-3.77a.98.98 0 0 1 .94-.88l3.79-.1c12.01-.33 18.44-7.08 18.7-7.36l3.17-3.5c.37-.41 1.07-.41 1.44 0l3.18 3.51c.06.07 6.59 7.02 18.69 7.35l3.79.1c.49.01.89.39.94.88l.36 3.77c1.2 12.43-2.64 38.33-25.76 47.4l-1.57.61c-.11.05-.23.07-.35.07zM6.53 13.19l-.28 2.92c-1.16 11.92 2.49 36.75 24.54 45.4l1.21.48 1.21-.48c22.05-8.65 25.7-33.48 24.54-45.41l-.28-2.92-2.93-.08c-13.08-.36-20.01-7.92-20.08-7.99L32 2.4l-2.46 2.72c-.3.32-7.26 7.64-20.08 7.99l-2.93.08z"></path>
  <path d="M32 59.39c-.12 0-.24-.02-.35-.07C5.72 49.16 8.55 16.66 8.59 16.33a.98.98 0 0 1 .94-.88c13.97-.38 21.68-8.68 21.76-8.76.37-.4 1.07-.41 1.44 0 .08.08 7.79 8.38 21.76 8.76.49.01.89.39.94.88.03.33 2.86 32.82-23.06 42.99-.13.05-.25.07-.37.07zM10.46 17.36c-.24 5.03-.37 31.15 21.54 40.02 21.91-8.87 21.78-34.98 21.54-40.02-11.98-.6-19.3-6.54-21.54-8.64-2.23 2.1-9.56 8.04-21.54 8.64z"></path>
  <path d="M32 59.39c-.54 0-.97-.43-.97-.97V7.35c0-.54.43-.97.97-.97s.97.43.97.97v51.07c0 .54-.43.97-.97.97z"></path>
  <path d="M53.21 32.96H10.79c-.54 0-.97-.43-.97-.97s.43-.97.97-.97h42.42c.54 0 .97.43.97.97s-.43.97-.97.97z"></path>
</symbol>
<symbol id="contact-card" class="theme_2" viewBox="0 0 64 64">
  <style>
    <![CDATA[
      .contact-card__path-1 {
        fill: orange;
      }

      :where(.theme_2) .contact-card__path-1 {
        fill: green;
      }
    ]]>
  </style>
  <path class="contact-card__path-1" d="M52.48,44.55H1.62A1.63,1.63,0,0,1,0,42.93V11.16A1.63,1.63,0,0,1,1.62,9.54H52.48a1.63,1.63,0,0,1,1.62,1.62V42.93A1.63,1.63,0,0,1,52.48,44.55Zm-50.86-34a.64.64,0,0,0-.64.63V42.93a.64.64,0,0,0,.64.63H52.48a.64.64,0,0,0,.64-.63V11.16a.64.64,0,0,0-.64-.63Z"></path>
  <path d="M57.43,49.5H6.57A1.63,1.63,0,0,1,5,47.88V44.05a.49.49,0,0,1,1,0v3.83a.64.64,0,0,0,.64.64H57.43a.64.64,0,0,0,.64-.64V16.11a.64.64,0,0,0-.64-.63H53.61a.49.49,0,0,1,0-1h3.82a1.62,1.62,0,0,1,1.63,1.61V47.88A1.63,1.63,0,0,1,57.43,49.5Z"></path>
  <path d="M62.39 54.46H11.53A1.63 1.63 0 0 1 9.9 52.83V49a.5.5 0 0 1 1 0v3.82a.64.64 0 0 0 .64.64H62.39a.64.64 0 0 0 .63-.64V21.07a.64.64 0 0 0-.63-.64H58.56a.5.5 0 0 1 0-1h3.83A1.62 1.62 0 0 1 64 21.07V52.83A1.62 1.62 0 0 1 62.39 54.46zM14.87 26.06a4.63 4.63 0 1 1 4.63-4.63A4.63 4.63 0 0 1 14.87 26.06zm0-8.27a3.64 3.64 0 1 0 3.64 3.64A3.65 3.65 0 0 0 14.87 17.79zM23.36 38h-17a.49.49 0 0 1-.5-.49 9 9 0 0 1 18 0A.49.49 0 0 1 23.36 38zM6.89 37h16a8 8 0 0 0-16 0zM47.77 22.94H28.31a.49.49 0 0 1-.5-.49V16.69a.49.49 0 0 1 .5-.49H47.77a.49.49 0 0 1 .49.49v5.76A.49.49 0 0 1 47.77 22.94zm-19-1H47.27V17.18H28.8z"></path>
  <path d="M47.77 27.94H28.31a.49.49 0 1 1 0-1H47.77a.49.49 0 1 1 0 1zM47.77 33H28.31a.5.5 0 1 1 0-1H47.77a.5.5 0 0 1 0 1zM47.77 38H28.31a.49.49 0 1 1 0-1H47.77a.49.49 0 0 1 0 1z"></path>
</symbol>
</defs>
</svg>
